HIERARCHY
ROOT Hips
{
	OFFSET 0.00000 0.00000 0.00000
	CHANNELS 6 Xposition Yposition Zposition Zrotation Yrotation Xrotation 
	JOINT LHipJoint
	{
		OFFSET 0 0 0
		CHANNELS 3 Zrotation Yrotation Xrotation
		JOINT LeftUpLeg
		{
			OFFSET 1.55766 -1.60504 1.11378
			CHANNELS 3 Zrotation Yrotation Xrotation
			JOINT LeftLeg
			{
				OFFSET 2.29047 -6.29302 0.00000
				CHANNELS 3 Zrotation Yrotation Xrotation
				JOINT LeftFoot
				{
					OFFSET 2.52265 -6.93093 0.00000
					CHANNELS 3 Zrotation Yrotation Xrotation
					JOINT LeftToeBase
					{
						OFFSET 0.17633 -0.48446 2.02656
						CHANNELS 3 Zrotation Yrotation Xrotation
						End Site
						{
							OFFSET 0.00000 -0.00000 1.04989
						}
					}
				}
			}
		}
	}
	JOINT RHipJoint
	{
		OFFSET 0 0 0
		CHANNELS 3 Zrotation Yrotation Xrotation
		JOINT RightUpLeg
		{
			OFFSET -1.48599 -1.60504 1.11378
			CHANNELS 3 Zrotation Yrotation Xrotation
			JOINT RightLeg
			{
				OFFSET -2.27280 -6.24448 0.00000
				CHANNELS 3 Zrotation Yrotation Xrotation
				JOINT RightFoot
				{
					OFFSET -2.50834 -6.89161 0.00000
					CHANNELS 3 Zrotation Yrotation Xrotation
					JOINT RightToeBase
					{
						OFFSET -0.26967 -0.74090 2.08741
						CHANNELS 3 Zrotation Yrotation Xrotation
						End Site
						{
							OFFSET -0.00000 -0.00000 1.10614
						}
					}
				}
			}
		}
	}
	JOINT LowerBack
	{
		OFFSET 0 0 0
		CHANNELS 3 Zrotation Yrotation Xrotation
		JOINT Spine
		{
			OFFSET 0.06481 2.02437 -0.08472
			CHANNELS 3 Zrotation Yrotation Xrotation
			JOINT Spine1
			{
				OFFSET 0.00015 1.96711 0.18069
				CHANNELS 3 Zrotation Yrotation Xrotation
				JOINT Neck
				{
					OFFSET 0 0 0
					CHANNELS 3 Zrotation Yrotation Xrotation
					JOINT Neck1
					{
						OFFSET -0.29961 1.68293 -0.13041
						CHANNELS 3 Zrotation Yrotation Xrotation
						JOINT Head
						{
							OFFSET 0.59697 1.61501 -0.14669
							CHANNELS 3 Zrotation Yrotation Xrotation
							End Site
							{
								OFFSET 0.22973 1.74906 -0.10148
							}
						}
					}
				}
				JOINT LeftShoulder
				{
					OFFSET 0 0 0
					CHANNELS 3 Zrotation Yrotation Xrotation
					JOINT LeftArm
					{
						OFFSET 3.37968 1.02893 0.31147
						CHANNELS 3 Zrotation Yrotation Xrotation
						JOINT LeftForeArm
						{
							OFFSET 5.19807 -0.00000 -0.00000
							CHANNELS 3 Zrotation Yrotation Xrotation
							JOINT LeftHand
							{
								OFFSET 3.09370 -0.00000 -0.00000
								CHANNELS 3 Zrotation Yrotation Xrotation
								JOINT LeftFingerBase
								{
									OFFSET 0 0 0
									CHANNELS 3 Zrotation Yrotation Xrotation
									JOINT LeftHandIndex1
									{
										OFFSET 0.67263 -0.00000 -0.00000
										CHANNELS 3 Zrotation Yrotation Xrotation
										End Site
										{
											OFFSET 0.54229 -0.00000 -0.00000
										}
									}
								}
								JOINT LThumb
								{
									OFFSET 0 0 0
									CHANNELS 3 Zrotation Yrotation Xrotation
									End Site
									{
										OFFSET 0.55057 -0.00000 0.55057
									}
								}
							}
						}
					}
				}
				JOINT RightShoulder
				{
					OFFSET 0 0 0
					CHANNELS 3 Zrotation Yrotation Xrotation
					JOINT RightArm
					{
						OFFSET -3.38254 0.96355 -0.16120
						CHANNELS 3 Zrotation Yrotation Xrotation
						JOINT RightForeArm
						{
							OFFSET -5.45222 -0.00000 -0.00000
							CHANNELS 3 Zrotation Yrotation Xrotation
							JOINT RightHand
							{
								OFFSET -3.01284 -0.00000 -0.00000
								CHANNELS 3 Zrotation Yrotation Xrotation
								JOINT RightFingerBase
								{
									OFFSET 0 0 0
									CHANNELS 3 Zrotation Yrotation Xrotation
									JOINT RightHandIndex1
									{
										OFFSET -0.62230 -0.00000 -0.00000
										CHANNELS 3 Zrotation Yrotation Xrotation
										End Site
										{
											OFFSET -0.50171 -0.00000 -0.00000
										}
									}
								}
								JOINT RThumb
								{
									OFFSET 0 0 0
									CHANNELS 3 Zrotation Yrotation Xrotation
									End Site
									{
										OFFSET -0.50937 -0.00000 0.50937
									}
								}
							}
						}
					}
				}
			}
		}
	}
}
MOTION
Frames: 13
Frame Time: .0083333
-5.6941 16.3205 34.8933 -156.5660 -80.2691 169.1410 0.0000 0.0000 0.0000 -15.0152 -1.0150 -14.8257 0.5285 4.6584 12.9369 0.2230 -10.9774 -10.7152 1.1070 -6.6848 -18.7848 0.0000 0.0000 0.0000 21.9538 -2.7368 -10.2232 -0.0760 -1.7789 4.8951 0.4586 16.7301 -6.4537 -0.4787 4.4371 -12.3098 2.0206 2.3867 -12.7551 -0.4983 2.6176 -6.3606 -1.3136 1.1209 0.5950 -30.9364 -7.6532 17.0022 42.3449 -17.4460 -5.8504 22.4948 -11.3466 2.9277 0.0000 -0.0000 0.0000 -85.2442 11.3309 42.9407 16.7088 -26.4722 -3.9566 -0.0000 0.0000 -35.6159 15.3087 -14.8814 -4.0213 -7.1250 0.0000 -0.0000 -8.2885 14.6882 5.9800 0.0000 -0.0000 0.0000 89.1807 -7.2246 37.8026 -13.3718 21.8296 -2.5899 0.0000 0.0000 25.4280 -8.2337 4.0190 -0.5811 7.1250 -0.0000 -0.0000 13.8267 -25.8752 6.5889
-5.6927 16.3198 34.8931 -156.4590 -80.2574 169.0150 0.0000 0.0000 0.0000 -14.9902 -1.0019 -14.8267 0.5306 4.6679 12.9638 0.2239 -10.9897 -10.7328 1.1094 -6.6918 -18.8053 0.0000 0.0000 0.0000 21.9788 -2.7403 -10.1893 -0.0751 -1.7682 4.8656 0.4594 16.7277 -6.4394 -0.4785 4.4362 -12.3073 2.0180 2.3738 -12.7672 -0.4716 2.6005 -6.3488 -1.2861 1.1132 0.6118 -30.9548 -7.6933 16.9989 42.2870 -17.5162 -5.7960 22.4349 -11.3741 2.9667 0.0000 0.0000 0.0000 -85.2524 11.2834 43.2342 16.6174 -26.3507 -3.9160 -0.0000 0.0000 -35.0751 16.0149 -14.7462 -4.1786 -7.1250 0.0000 -0.0000 -7.8085 14.7640 5.6141 0.0000 0.0000 0.0000 89.1339 -7.1803 37.9555 -13.3548 21.8049 -2.5836 0.0000 0.0000 25.5158 -8.2804 3.9860 -0.5796 7.1250 -0.0000 -0.0000 13.7956 -25.9074 6.5625
-5.6914 16.3191 34.8930 -156.3170 -80.2467 168.8560 0.0000 0.0000 0.0000 -14.9599 -0.9836 -14.8350 0.5331 4.6788 12.9946 0.2250 -11.0066 -10.7542 1.1151 -6.7085 -18.8546 0.0000 0.0000 0.0000 22.0107 -2.7473 -10.1513 -0.0738 -1.7530 4.8236 0.4609 16.7264 -6.4176 -0.4782 4.4346 -12.3026 2.0270 2.3685 -12.7858 -0.4546 2.5921 -6.3345 -1.2737 1.1097 0.6361 -30.9473 -7.7376 16.9984 42.2315 -17.5839 -5.7551 22.3699 -11.4010 2.9974 -0.0000 0.0000 0.0000 -85.2340 11.2270 43.5768 16.5305 -26.2347 -3.8775 -0.0000 0.0000 -34.5746 16.7619 -14.5632 -4.3310 -7.1250 0.0000 -0.0000 -7.2987 14.8846 5.2222 -0.0000 0.0000 0.0000 89.0967 -7.1299 38.1017 -13.3316 21.7712 -2.5750 0.0000 0.0000 25.5917 -8.3231 3.9486 -0.5772 7.1250 -0.0000 -0.0000 13.7681 -25.9439 6.5365
-5.6902 16.3185 34.8929 -156.1800 -80.2374 168.7050 0.0000 0.0000 0.0000 -14.9304 -0.9681 -14.8453 0.5359 4.6906 13.0282 0.2259 -11.0246 -10.7739 1.1193 -6.7207 -18.8904 0.0000 0.0000 0.0000 22.0409 -2.7569 -10.1101 -0.0723 -1.7345 4.7725 0.4630 16.7269 -6.3890 -0.4776 4.4322 -12.2958 2.0393 2.3673 -12.8079 -0.4449 2.5890 -6.3187 -1.2700 1.1087 0.6644 -30.7280 -7.8085 17.0262 42.5033 -17.5983 -5.8672 21.8417 -11.4004 2.9624 0.0000 0.0000 0.0000 -85.2011 11.1581 43.9045 16.4691 -26.1526 -3.8504 -0.0000 0.0000 -34.2753 17.4080 -14.2612 -4.4166 -7.1250 0.0000 -0.0000 -6.8532 15.1369 4.8613 0.0000 0.0000 0.0000 89.0534 -7.0768 38.2783 -13.3065 21.7346 -2.5657 0.0000 0.0000 25.6278 -8.3546 3.9133 -0.5742 7.1250 -0.0000 -0.0000 13.7486 -25.9784 6.5153
-5.6892 16.3181 34.8930 -156.0470 -80.2313 168.5620 0.0000 0.0000 0.0000 -14.9039 -0.9490 -14.8630 0.5387 4.7025 13.0620 0.2260 -11.0522 -10.7889 1.1218 -6.7279 -18.9116 0.0000 0.0000 0.0000 22.0689 -2.7684 -10.0730 -0.0707 -1.7155 4.7199 0.4654 16.7287 -6.3579 -0.4767 4.4280 -12.2840 2.0515 2.3697 -12.8349 -0.4389 2.5905 -6.3039 -1.2692 1.1099 0.6946 -30.7064 -7.8567 17.0315 42.4572 -17.6716 -5.8341 21.7857 -11.4324 2.9920 0.0000 0.0000 0.0000 -85.1581 11.0859 44.2382 16.4256 -26.0944 -3.8313 -0.0000 0.0000 -34.1378 17.9831 -13.9308 -4.4684 -7.1250 0.0000 -0.0000 -6.4533 15.4262 4.5335 0.0000 0.0000 0.0000 88.9963 -7.0231 38.4916 -13.2807 21.6971 -2.5561 0.0000 0.0000 25.6199 -8.3787 3.8736 -0.5701 7.1250 -0.0000 -0.0000 13.7351 -26.0174 6.4956
-5.6881 16.3177 34.8935 -155.9330 -80.2311 168.4410 0.0000 0.0000 0.0000 -14.8840 -0.9323 -14.8844 0.5413 4.7139 13.0943 0.2254 -11.0862 -10.7971 1.1198 -6.7222 -18.8951 0.0000 0.0000 0.0000 22.0897 -2.7823 -10.0456 -0.0694 -1.6994 4.6755 0.4674 16.7305 -6.3320 -0.4767 4.4279 -12.2838 2.0593 2.3709 -12.8621 -0.4312 2.5907 -6.2918 -1.2644 1.1104 0.7219 -30.6886 -7.9057 17.0367 42.4136 -17.7482 -5.7995 21.7316 -11.4663 3.0243 -0.0000 0.0000 0.0000 -85.1185 11.0161 44.5687 16.3929 -26.0505 -3.8169 -0.0000 0.0000 -34.0799 18.5174 -13.6042 -4.5045 -7.1250 0.0000 -0.0000 -6.0796 15.7166 4.2297 -0.0000 0.0000 0.0000 88.9187 -6.9691 38.7405 -13.2523 21.6557 -2.5456 0.0000 0.0000 25.5753 -8.3905 3.8417 -0.5662 7.1250 -0.0000 -0.0000 13.7299 -26.0486 6.4826
-5.6870 16.3176 34.8942 -155.8520 -80.2353 168.3550 0.0000 0.0000 0.0000 -14.8717 -0.9171 -14.9085 0.5439 4.7250 13.1258 0.2237 -11.1295 -10.7980 1.1121 -6.6998 -18.8291 0.0000 0.0000 0.0000 22.1014 -2.7968 -10.0273 -0.0683 -1.6864 4.6396 0.4695 16.7337 -6.3063 -0.4756 4.4228 -12.2694 2.0583 2.3695 -12.8894 -0.4203 2.5882 -6.2808 -1.2517 1.1098 0.7473 -30.6822 -7.9549 17.0361 42.3756 -17.8293 -5.7593 21.6823 -11.5025 3.0635 -0.0000 -0.0000 0.0000 -85.0788 10.9568 44.9468 16.3578 -26.0034 -3.8015 -0.0000 0.0000 -33.8843 19.1295 -13.3024 -4.5630 -7.1250 0.0000 -0.0000 -5.6512 15.9753 3.8969 -0.0000 -0.0000 0.0000 88.8285 -6.9097 38.9988 -13.2188 21.6070 -2.5333 0.0000 0.0000 25.5158 -8.3892 3.8260 -0.5638 7.1250 -0.0000 -0.0000 13.7325 -26.0641 6.4788
-5.6858 16.3175 34.8950 -155.7950 -80.2437 168.2960 0.0000 0.0000 0.0000 -14.8656 -0.9067 -14.9360 0.5464 4.7358 13.1567 0.2217 -11.1743 -10.7959 1.1020 -6.6703 -18.7423 0.0000 0.0000 0.0000 22.1066 -2.8102 -10.0217 -0.0677 -1.6785 4.6181 0.4709 16.7358 -6.2885 -0.4755 4.4223 -12.2679 2.0503 2.3662 -12.9154 -0.4065 2.5841 -6.2714 -1.2324 1.1084 0.7701 -30.6816 -8.0051 17.0314 42.3417 -17.9130 -5.7190 21.6362 -11.5400 3.1059 0.0000 0.0000 0.0000 -85.0412 10.9006 45.3332 16.3237 -25.9576 -3.7865 -0.0000 0.0000 -33.6497 19.7218 -13.0427 -4.6252 -7.1250 0.0000 -0.0000 -5.2357 16.1926 3.5831 0.0000 0.0000 0.0000 88.7294 -6.8468 39.2641 -13.1816 21.5528 -2.5196 0.0000 0.0000 25.4419 -8.3901 3.8139 -0.5621 7.1250 -0.0000 -0.0000 13.7332 -26.0759 6.4753
-5.6845 16.3175 34.8958 -155.7390 -80.2529 168.2400 0.0000 0.0000 0.0000 -14.8593 -0.8991 -14.9626 0.5488 4.7457 13.1846 0.2197 -11.2158 -10.7926 1.0924 -6.6419 -18.6588 0.0000 0.0000 0.0000 22.1115 -2.8201 -10.0277 -0.0676 -1.6777 4.6156 0.4719 16.7381 -6.2785 -0.4742 4.4166 -12.2517 2.0430 2.3608 -12.9379 -0.3917 2.5770 -6.2625 -1.2130 1.1056 0.7902 -30.6911 -8.0532 17.0226 42.3205 -17.9981 -5.6780 21.6003 -11.5795 3.1534 0.0000 0.0000 0.0000 -84.9999 10.8427 45.6883 16.3047 -25.9320 -3.7782 -0.0000 0.0000 -33.4483 20.2101 -12.7577 -4.6475 -7.1250 0.0000 -0.0000 -4.8897 16.4471 3.3174 0.0000 0.0000 0.0000 88.6552 -6.7732 39.4241 -13.1289 21.4758 -2.5003 0.0000 0.0000 25.4617 -8.3840 3.8354 -0.5648 7.1250 -0.0000 -0.0000 13.7354 -26.0549 6.4833
-5.6829 16.3175 34.8965 -155.6970 -80.2636 168.2010 0.0000 0.0000 0.0000 -14.8560 -0.8962 -14.9891 0.5507 4.7537 13.2075 0.2175 -11.2523 -10.7835 1.0812 -6.6091 -18.5624 0.0000 0.0000 0.0000 22.1128 -2.8245 -10.0522 -0.0684 -1.6868 4.6409 0.4716 16.7404 -6.2852 -0.4745 4.4179 -12.2553 2.0377 2.3585 -12.9574 -0.3823 2.5740 -6.2542 -1.1998 1.1046 0.8086 -30.7010 -8.1018 17.0155 42.3138 -18.0858 -5.6448 21.5735 -11.6224 3.2022 -0.0000 -0.0000 0.0000 -84.9375 10.7873 46.0830 16.2859 -25.9068 -3.7700 -0.0000 0.0000 -33.1594 20.6999 -12.5070 -4.6781 -7.1250 0.0000 -0.0000 -4.5423 16.6665 3.0584 -0.0000 -0.0000 0.0000 88.6177 -6.6917 39.4604 -13.0627 21.3790 -2.4761 0.0000 0.0000 25.5834 -8.3784 3.8792 -0.5709 7.1250 -0.0000 -0.0000 13.7347 -26.0119 6.4972
-5.6811 16.3175 34.8972 -155.6910 -80.2772 168.1960 0.0000 0.0000 0.0000 -14.8607 -0.8965 -15.0122 0.5520 4.7595 13.2237 0.2154 -11.2817 -10.7725 1.0715 -6.5803 -18.4779 0.0000 0.0000 0.0000 22.1067 -2.8250 -10.0920 -0.0699 -1.7057 4.6930 0.4701 16.7437 -6.3100 -0.4758 4.4239 -12.2724 2.0362 2.3591 -12.9747 -0.3839 2.5750 -6.2451 -1.1998 1.1055 0.8275 -30.7061 -8.1481 17.0139 42.3258 -18.1715 -5.6233 21.5592 -11.6673 3.2486 0.0000 0.0000 0.0000 -84.8454 10.7285 46.4817 16.2825 -25.9023 -3.7685 -0.0000 0.0000 -33.0114 21.0849 -12.3102 -4.6994 -7.1250 0.0000 -0.0000 -4.2684 16.8394 2.8568 0.0000 0.0000 0.0000 88.6056 -6.6084 39.4384 -12.9949 21.2798 -2.4514 0.0000 0.0000 25.7427 -8.3714 3.9315 -0.5781 7.1250 -0.0000 -0.0000 13.7342 -25.9605 6.5140
-5.6792 16.3173 34.8982 -155.7280 -80.2971 168.2320 0.0000 0.0000 0.0000 -14.8770 -0.9104 -15.0242 0.5529 4.7631 13.2341 0.2142 -11.2926 -10.7640 1.0657 -6.5630 -18.4269 0.0000 0.0000 0.0000 22.0888 -2.8270 -10.1430 -0.0722 -1.7335 4.7698 0.4672 16.7467 -6.3532 -0.4785 4.4360 -12.3065 2.0313 2.3670 -12.9895 -0.4016 2.5865 -6.2350 -1.2131 1.1116 0.8470 -30.6950 -8.1937 17.0343 42.3640 -18.2588 -5.6236 21.5604 -11.7190 3.2884 -0.0000 0.0000 0.0000 -84.7298 10.6568 46.8481 16.2885 -25.9102 -3.7711 -0.0000 0.0000 -33.0135 21.2880 -12.1577 -4.6911 -7.1250 0.0000 -0.0000 -4.1218 16.9825 2.7453 -0.0000 0.0000 0.0000 88.6151 -6.5383 39.4345 -12.9388 21.1975 -2.4311 0.0000 0.0000 25.8450 -8.3829 3.9503 -0.5816 7.1250 -0.0000 -0.0000 13.7236 -25.9420 6.5148
-5.6772 16.3171 34.8993 -155.7780 -80.3179 168.2810 0.0000 0.0000 0.0000 -14.8968 -0.9237 -15.0356 0.5533 4.7651 13.2397 0.2134 -11.2985 -10.7571 1.0649 -6.5605 -18.4197 0.0000 0.0000 0.0000 22.0686 -2.8261 -10.2036 -0.0750 -1.7670 4.8622 0.4637 16.7496 -6.4057 -0.4812 4.4484 -12.3418 2.0314 2.3768 -13.0057 -0.4248 2.6002 -6.2235 -1.2345 1.1188 0.8692 -30.6940 -8.2326 17.0680 42.4289 -18.3442 -5.6384 21.5840 -11.7746 3.3271 -0.0000 -0.0000 0.0000 -84.5950 10.5950 47.2780 16.2924 -25.9155 -3.7728 -0.0000 0.0000 -32.9527 21.5821 -12.0797 -4.7322 -7.1250 0.0000 -0.0000 -3.9142 17.0381 2.6016 -0.0000 -0.0000 0.0000 88.6225 -6.4742 39.4560 -12.8932 21.1305 -2.4146 0.0000 0.0000 25.8984 -8.3942 3.9699 -0.5853 7.1250 -0.0000 -0.0000 13.7131 -25.9227 6.5159
